<svg width="99" height="24" viewBox="0 0 99 24" fill="none" xmlns="http://www.w3.org/2000/svg">
<g clip-path="url(#clip0_2783_82624)">
<path d="M86.2649 16.851C84.2851 16.851 82.681 18.4517 82.681 20.4255C82.681 22.3993 84.2851 24 86.2649 24C88.2448 24 89.8488 22.3993 89.8488 20.4255C89.8488 18.4517 88.2448 16.851 86.2649 16.851ZM86.2649 8.42657C84.2851 8.42657 82.681 10.0273 82.681 12.0011C82.681 13.9749 84.2851 15.5756 86.2649 15.5756C88.2448 15.5756 89.8488 13.9749 89.8488 12.0011C89.8488 10.0273 88.2448 8.42657 86.2649 8.42657ZM77.9676 8.42657C75.9877 8.42657 74.3837 10.0273 74.3837 12.0011C74.3837 13.9749 75.9877 15.5756 77.9676 15.5756C79.9474 15.5756 81.5515 13.9749 81.5515 12.0011C81.5515 10.0273 79.9474 8.42657 77.9676 8.42657ZM94.5601 8.42657C92.5802 8.42657 90.9762 10.0273 90.9762 12.0011C90.9762 13.9749 92.5802 15.5756 94.5601 15.5756C96.5399 15.5756 98.144 13.9749 98.144 12.0011C98.144 10.0273 96.5399 8.42657 94.5601 8.42657ZM86.2649 0C84.2851 0 82.681 1.60072 82.681 3.57451C82.681 5.54831 84.2851 7.14903 86.2649 7.14903C88.2448 7.14903 89.8488 5.54831 89.8488 3.57451C89.8488 1.60072 88.2448 0 86.2649 0Z" fill="white"/>
<path d="M67.9127 1.22332H68.0565L68.3871 1.77641H68.6298L68.2863 1.21247C68.3915 1.20163 68.4752 1.16909 68.5332 1.11487C68.5911 1.06064 68.6212 0.97822 68.6212 0.865432C68.6212 0.728785 68.5804 0.63118 68.501 0.574786C68.4215 0.516223 68.3034 0.488025 68.151 0.488025H67.6764V1.77641H67.9127V1.22332ZM67.9127 0.670221H68.1252C68.1574 0.670221 68.1875 0.672391 68.2175 0.676729C68.2476 0.681067 68.2756 0.689743 68.2992 0.702757C68.3249 0.715771 68.3442 0.733123 68.3593 0.756982C68.3743 0.780841 68.3829 0.811206 68.3829 0.848079C68.3829 0.891459 68.3764 0.926164 68.3614 0.952192C68.3464 0.97822 68.327 0.995572 68.3034 1.00859C68.2798 1.0216 68.2518 1.03028 68.2218 1.03461C68.1897 1.03895 68.1574 1.04112 68.123 1.04112H67.9147V0.670221H67.9127ZM67.3157 1.94126C67.4166 2.0432 67.5369 2.12562 67.6721 2.18418C67.8074 2.24492 67.9534 2.27311 68.1102 2.27311C68.2669 2.27311 68.4129 2.24275 68.5482 2.18418C68.6835 2.12345 68.8038 2.0432 68.9047 1.94126C69.0056 1.83931 69.0872 1.71785 69.1452 1.5812C69.2053 1.44455 69.2332 1.29706 69.2332 1.13873C69.2332 0.980389 69.2032 0.832897 69.1452 0.69625C69.0851 0.559603 69.0056 0.438139 68.9047 0.336196C68.8038 0.234253 68.6835 0.151831 68.5482 0.0910985C68.4129 0.0303664 68.2669 0.00216946 68.1102 0.00216946C67.9534 0.00216946 67.8074 0.0325354 67.6721 0.0910985C67.5369 0.151831 67.4166 0.232084 67.3157 0.336196C67.2147 0.438139 67.1331 0.559603 67.073 0.69625C67.0129 0.832897 66.9849 0.980389 66.9849 1.13873C66.9849 1.29706 67.0151 1.44455 67.073 1.5812C67.1331 1.71785 67.2125 1.83714 67.3157 1.94126ZM67.3264 0.769996C67.3715 0.657208 67.4316 0.559603 67.5089 0.47935C67.5863 0.396928 67.6764 0.334027 67.7795 0.288478C67.8825 0.242929 67.9921 0.221238 68.1123 0.221238C68.2304 0.221238 68.3421 0.242929 68.4451 0.288478C68.5482 0.334027 68.6385 0.396928 68.7157 0.47935C68.793 0.561772 68.8532 0.659377 68.8982 0.769996C68.9433 0.880615 68.9649 1.00425 68.9649 1.13656C68.9649 1.26887 68.9433 1.39033 68.8982 1.50312C68.8532 1.61591 68.793 1.71351 68.7157 1.79376C68.6385 1.87619 68.5482 1.93909 68.4451 1.98464C68.3421 2.03019 68.2304 2.05188 68.1123 2.05188C67.9942 2.05188 67.8825 2.03019 67.7795 1.98464C67.6764 1.93909 67.5863 1.87619 67.5089 1.79376C67.4316 1.71134 67.3715 1.61591 67.3264 1.50312C67.2813 1.39033 67.2599 1.26887 67.2599 1.13656C67.2599 1.00425 67.2813 0.882784 67.3264 0.769996ZM0.599976 24H7.99541V15.3327H13.3187L15.2105 10.088H7.99541V5.22946H16.9584L18.8459 0H0.599976V24ZM21.1092 24H28.5046V0H21.1092V24ZM56.6713 0L48.0132 24H55.2948L56.2204 20.7769H64.5778L65.5441 24H73.0125L64.3609 0H56.6713ZM57.541 16.1634L60.399 6.16647L63.356 16.1634H57.541ZM40.9892 10.088V5.22946H49.9523L51.8398 0H33.5939V24H40.9892V15.3327H46.3125L48.2043 10.088H40.9892Z" fill="white"/>
</g>
<defs>
<clipPath id="clip0_2783_82624">
<rect width="98.4" height="24" fill="white" transform="translate(0.599976)"/>
</clipPath>
</defs>
</svg>
