<svg width="96" height="66" viewBox="0 0 96 66" fill="none" xmlns="http://www.w3.org/2000/svg">
<mask id="mask0_5981_169340" style="mask-type:alpha" maskUnits="userSpaceOnUse" x="0" y="0" width="96" height="66">
<path d="M47.4663 0.00013591C29.9517 0.0194892 2.66806 2.13339 2.66806 2.13339C2.66806 2.13339 0.0718726 19.9636 0.00152783 31.4656C-0.0738921 43.7974 2.66806 62.9309 2.66806 62.9309C2.66806 62.9309 29.9517 65.045 47.4663 65.0643C65.3971 65.0841 93.3313 62.9309 93.3313 62.9309C93.3313 62.9309 96.0882 43.8166 95.9978 31.4656C95.9135 19.943 93.3313 2.13339 93.3313 2.13339C93.3313 2.13339 65.3971 -0.0196771 47.4663 0.00013591Z" fill="white"/>
</mask>
<g mask="url(#mask0_5981_169340)">
<path d="M0 -3.13037H96V68.8696H0V-3.13037Z" fill="#8D1B3D"/>
<path d="M0 -3.13037V68.8696H23.76L38.43 64.8646L23.76 60.8746L38.415 56.8696L23.76 52.8646L38.415 48.8746L23.76 44.8696L38.43 40.8646L23.76 36.8746L38.415 32.8696L23.76 28.8646L38.415 24.8746L23.76 20.8696L38.43 16.8646L23.76 12.8746L38.415 8.86963L23.76 4.86463L38.43 0.874629L23.745 -3.13037H0Z" fill="white"/>
<path d="M3.05157 2.99106C3.07257 2.84053 3.09089 2.71025 3.10627 2.60141C3.30505 2.58638 3.57542 2.56607 3.91157 2.54115C4.69122 2.48335 5.82473 2.40075 7.23976 2.30156C10.0699 2.10318 14.0258 1.83847 18.5286 1.57315C27.5371 1.04237 38.7247 0.509795 47.4669 0.500136C56.4167 0.490246 67.8708 1.02281 77.0938 1.55849C81.704 1.82625 85.7541 2.09464 88.6517 2.29608C90.1004 2.3968 91.261 2.48077 92.0592 2.53956C92.4086 2.56529 92.6885 2.58619 92.8928 2.60156C92.9081 2.71011 92.9263 2.83997 92.9471 2.98995C93.0178 3.49836 93.1188 4.23787 93.2403 5.16142C93.4834 7.00861 93.8084 9.59151 94.136 12.5338C94.7918 18.4234 95.4559 25.7351 95.4978 31.4693C95.5428 37.6148 94.8788 45.4577 94.2013 51.7766C93.8628 54.9334 93.5214 57.7049 93.2648 59.6871C93.1364 60.6782 93.0293 61.4718 92.9542 62.0174C92.9302 62.1917 92.9095 62.3407 92.8925 62.4628C92.6882 62.4782 92.4083 62.4991 92.0592 62.5248C91.261 62.5836 90.1004 62.6675 88.6517 62.7683C85.7541 62.9697 81.704 63.2381 77.0938 63.5059C67.8708 64.0416 56.4167 64.5742 47.4669 64.5643C38.7247 64.5546 27.5371 64.022 18.5286 63.4912C14.0258 63.2259 10.0699 62.9612 7.23976 62.7628C5.82474 62.6636 4.69122 62.581 3.91158 62.5232C3.57596 62.4983 3.30592 62.478 3.10723 62.463C3.09025 62.3408 3.06965 62.1916 3.04578 62.017C2.97111 61.4709 2.86447 60.6766 2.73671 59.6848C2.48118 57.701 2.14124 54.9276 1.80368 51.7696C1.12798 45.4481 0.463989 37.605 0.501518 31.4687C0.536522 25.7452 1.20061 18.4338 1.85809 12.5417C2.18655 9.59812 2.51284 7.01332 2.757 5.16455C2.87907 4.24021 2.9806 3.49999 3.05157 2.99106Z" stroke="#D5C46C"/>
</g>
</svg>
